<svg width="18" height="13" viewBox="0 0 18 13" fill="none" xmlns="http://www.w3.org/2000/svg">
<path fill-rule="evenodd" clip-rule="evenodd" d="M15.4066 0.771981C16.141 0.973491 16.7193 1.56724 16.9156 2.32124C17.2722 3.68779 17.2722 6.53909 17.2722 6.53909C17.2722 6.53909 17.2722 9.3903 16.9156 10.7569C16.7193 11.511 16.141 12.1047 15.4066 12.3063C14.0758 12.6724 8.7389 12.6724 8.7389 12.6724C8.7389 12.6724 3.40198 12.6724 2.07107 12.3063C1.33672 12.1047 0.758391 11.511 0.562124 10.7569C0.205566 9.3903 0.205566 6.53909 0.205566 6.53909C0.205566 6.53909 0.205566 3.68779 0.562124 2.32124C0.758391 1.56724 1.33672 0.973491 2.07107 0.771981C3.40198 0.405762 8.7389 0.405762 8.7389 0.405762C8.7389 0.405762 14.0758 0.405762 15.4066 0.771981ZM7.13892 4.13904V9.47237L11.4056 6.80581L7.13892 4.13904Z" fill="#C8C8C8"/>
</svg>
