<svg width="18" height="18" viewBox="0 0 18 18" fill="none" xmlns="http://www.w3.org/2000/svg">
<path fill-rule="evenodd" clip-rule="evenodd" d="M8.73946 0.739014C6.42192 0.739014 6.13107 0.749147 5.22084 0.79057C4.31239 0.83217 3.69229 0.975994 3.14971 1.18702C2.58846 1.40498 2.11236 1.69653 1.63805 2.17103C1.16338 2.64534 0.871818 3.12144 0.653149 3.68251C0.441591 4.22527 0.29759 4.84555 0.256701 5.75364C0.215989 6.66388 0.205322 6.9549 0.205322 9.27244C0.205322 11.59 0.215633 11.8799 0.256878 12.7902C0.298657 13.6986 0.44248 14.3187 0.653327 14.8613C0.871463 15.4225 1.16302 15.8986 1.63752 16.373C2.11165 16.8476 2.58775 17.1399 3.14864 17.3579C3.69158 17.5689 4.31185 17.7127 5.22013 17.7543C6.13036 17.7957 6.42103 17.8059 8.73839 17.8059C11.0561 17.8059 11.3461 17.7957 12.2563 17.7543C13.1647 17.7127 13.7856 17.5689 14.3285 17.3579C14.8896 17.1399 15.3649 16.8476 15.8391 16.373C16.3138 15.8986 16.6053 15.4225 16.824 14.8615C17.0338 14.3187 17.1778 13.6984 17.2204 12.7903C17.2613 11.8801 17.272 11.59 17.272 9.27244C17.272 6.9549 17.2613 6.66405 17.2204 5.75382C17.1778 4.84537 17.0338 4.22527 16.824 3.68269C16.6053 3.12144 16.3138 2.64534 15.8391 2.17103C15.3644 1.69636 14.8897 1.4048 14.328 1.18702C13.784 0.975994 13.1635 0.83217 12.255 0.79057C11.3448 0.749147 11.055 0.739014 8.73679 0.739014H8.73946ZM7.9739 2.27678C8.2011 2.27643 8.45462 2.27678 8.73942 2.27678C11.0178 2.27678 11.2879 2.28496 12.1876 2.32585C13.0196 2.3639 13.4712 2.50292 13.772 2.61972C14.1702 2.77439 14.4541 2.95928 14.7526 3.25795C15.0513 3.55662 15.2362 3.84107 15.3912 4.23929C15.508 4.53974 15.6472 4.9913 15.6851 5.82331C15.726 6.72287 15.7349 6.9931 15.7349 9.27046C15.7349 11.5478 15.726 11.818 15.6851 12.7176C15.647 13.5496 15.508 14.0012 15.3912 14.3016C15.2366 14.6998 15.0513 14.9834 14.7526 15.2819C14.454 15.5806 14.1704 15.7655 13.772 15.9201C13.4716 16.0375 13.0196 16.1761 12.1876 16.2142C11.2881 16.2551 11.0178 16.264 8.73942 16.264C6.46082 16.264 6.19077 16.2551 5.29121 16.2142C4.4592 16.1758 4.00764 16.0367 3.70666 15.9199C3.30843 15.7653 3.02398 15.5804 2.72531 15.2817C2.42664 14.983 2.24175 14.6993 2.08673 14.3009C1.96993 14.0005 1.83072 13.5489 1.79286 12.7169C1.75197 11.8173 1.74379 11.5471 1.74379 9.26832C1.74379 6.98954 1.75197 6.72074 1.79286 5.82118C1.8309 4.98917 1.96993 4.53761 2.08673 4.2368C2.2414 3.83858 2.42664 3.55413 2.72531 3.25546C3.02398 2.95679 3.30843 2.7719 3.70666 2.61688C4.00746 2.49954 4.4592 2.36087 5.29121 2.32265C6.07841 2.28709 6.38348 2.27643 7.9739 2.27465V2.27678ZM13.2945 3.69369C12.7292 3.69369 12.2705 4.15183 12.2705 4.71735C12.2705 5.28268 12.7292 5.74136 13.2945 5.74136C13.8598 5.74136 14.3185 5.28268 14.3185 4.71735C14.3185 4.15201 13.8598 3.69369 13.2945 3.69369ZM8.73947 4.89014C6.31936 4.89014 4.3572 6.8523 4.3572 9.27241C4.3572 11.6925 6.31936 13.6538 8.73947 13.6538C11.1596 13.6538 13.121 11.6925 13.121 9.27241C13.121 6.8523 11.1596 4.89014 8.73947 4.89014ZM8.73944 6.42794C10.3103 6.42794 11.5839 7.70137 11.5839 9.27241C11.5839 10.8433 10.3103 12.1169 8.73944 12.1169C7.1684 12.1169 5.89496 10.8433 5.89496 9.27241C5.89496 7.70137 7.1684 6.42794 8.73944 6.42794Z" fill="#C8C8C8"/>
</svg>
