<svg width="17" height="14" viewBox="0 0 17 14" fill="none" xmlns="http://www.w3.org/2000/svg">
<path fill-rule="evenodd" clip-rule="evenodd" d="M8.25957 4.27756L8.29315 4.8312L7.73356 4.7634C5.69668 4.50353 3.9172 3.62223 2.40633 2.14211L1.66768 1.40769L1.47742 1.95003C1.07452 3.15899 1.33193 4.43574 2.1713 5.29444C2.61897 5.76899 2.51824 5.83678 1.74602 5.55431C1.47742 5.46392 1.24239 5.39613 1.22001 5.43003C1.14167 5.50912 1.41027 6.5373 1.62291 6.94405C1.91389 7.50899 2.50705 8.06262 3.15617 8.39028L3.70456 8.65015L3.05544 8.66145C2.42871 8.66145 2.40633 8.67275 2.47348 8.91002C2.69731 9.64444 3.58145 10.4241 4.56632 10.763L5.2602 11.0003L4.65585 11.3618C3.76052 11.8816 2.7085 12.1753 1.65649 12.1979C1.15286 12.2092 0.73877 12.2544 0.73877 12.2883C0.73877 12.4013 2.10415 13.034 2.89876 13.2826C5.28259 14.017 8.11408 13.7007 10.2405 12.4465C11.7514 11.5539 13.2622 9.78002 13.9673 8.06262C14.3478 7.14743 14.7284 5.47522 14.7284 4.67301C14.7284 4.15327 14.7619 4.08548 15.3887 3.46405C15.758 3.10249 16.1049 2.70704 16.1721 2.59405C16.284 2.37938 16.2728 2.37938 15.702 2.57146C14.7507 2.91042 14.6164 2.86522 15.0865 2.35678C15.4334 1.99522 15.8475 1.3399 15.8475 1.14782C15.8475 1.11392 15.6796 1.17042 15.4894 1.27211C15.2879 1.38509 14.8403 1.55457 14.5045 1.65626L13.9002 1.84834L13.3518 1.47548C13.0496 1.27211 12.6243 1.04613 12.4005 0.97834C11.8297 0.820158 10.9568 0.842755 10.4419 1.02353C9.04299 1.53198 8.15885 2.84262 8.25957 4.27756Z" fill="#C8C8C8"/>
</svg>
