<svg width="125" height="30" viewBox="0 0 125 30" fill="none" xmlns="http://www.w3.org/2000/svg">
<path d="M8.71941 22.0679C7.21736 22.0679 5.85933 21.8107 4.64534 21.2963C3.45192 20.7819 2.50542 20.0412 1.80583 19.0741C1.10624 18.107 0.746162 16.965 0.725586 15.6481H5.35522C5.41694 16.5329 5.72559 17.2325 6.28114 17.7469C6.85727 18.2613 7.63917 18.5185 8.62682 18.5185C9.63505 18.5185 10.4272 18.2819 11.0034 17.8086C11.5795 17.3148 11.8676 16.677 11.8676 15.8951C11.8676 15.2572 11.6721 14.7325 11.2811 14.321C10.8902 13.9095 10.3964 13.5905 9.79966 13.3642C9.22353 13.1173 8.42106 12.8498 7.39225 12.5617C5.99308 12.1502 4.8511 11.749 3.96633 11.358C3.10213 10.9465 2.3511 10.3395 1.71324 9.53704C1.09596 8.71399 0.787314 7.62346 0.787314 6.26543C0.787314 4.98971 1.10624 3.8786 1.7441 2.9321C2.38196 1.9856 3.27703 1.26543 4.42929 0.771604C5.58155 0.257201 6.89843 0 8.37991 0C10.6021 0 12.4025 0.545267 13.7811 1.6358C15.1803 2.70576 15.9519 4.20782 16.096 6.14198H11.3429C11.3017 5.40123 10.9828 4.79424 10.3861 4.32099C9.80995 3.82716 9.03834 3.58025 8.07127 3.58025C7.22764 3.58025 6.54863 3.7963 6.03423 4.22839C5.5404 4.66049 5.29349 5.28807 5.29349 6.11111C5.29349 6.68724 5.47867 7.17078 5.84904 7.56173C6.23999 7.9321 6.71324 8.24074 7.2688 8.48765C7.84493 8.71399 8.6474 8.98148 9.6762 9.29012C11.0754 9.70164 12.2174 10.1132 13.1021 10.5247C13.9869 10.9362 14.7482 11.5535 15.3861 12.3765C16.0239 13.1996 16.3429 14.2798 16.3429 15.6173C16.3429 16.7695 16.0445 17.8395 15.4478 18.8272C14.8511 19.8148 13.9766 20.607 12.8244 21.2037C11.6721 21.7798 10.3038 22.0679 8.71941 22.0679Z" fill="#00091A"/>
<path d="M25.1816 7.22222C25.7372 6.44033 26.4985 5.79218 27.4656 5.27778C28.4532 4.7428 29.5746 4.47531 30.8298 4.47531C32.2907 4.47531 33.6075 4.83539 34.7804 5.55556C35.9738 6.27572 36.91 7.30453 37.589 8.64197C38.2886 9.95885 38.6384 11.4918 38.6384 13.2407C38.6384 14.9897 38.2886 16.5432 37.589 17.9012C36.91 19.2387 35.9738 20.2778 34.7804 21.0185C33.6075 21.7593 32.2907 22.1296 30.8298 22.1296C29.5746 22.1296 28.4635 21.8724 27.4964 21.358C26.5499 20.8436 25.7783 20.1955 25.1816 19.4136V30H20.8606V4.75309H25.1816V7.22222ZM34.2248 13.2407C34.2248 12.2119 34.0088 11.3272 33.5767 10.5864C33.1651 9.8251 32.6096 9.24897 31.91 8.85802C31.231 8.46708 30.4902 8.2716 29.6878 8.2716C28.9059 8.2716 28.1651 8.47737 27.4656 8.88889C26.7865 9.27983 26.231 9.85597 25.7989 10.6173C25.3874 11.3786 25.1816 12.2737 25.1816 13.3025C25.1816 14.3313 25.3874 15.2263 25.7989 15.9877C26.231 16.749 26.7865 17.3354 27.4656 17.7469C28.1651 18.1379 28.9059 18.3333 29.6878 18.3333C30.4902 18.3333 31.231 18.1276 31.91 17.716C32.6096 17.3045 33.1651 16.7181 33.5767 15.9568C34.0088 15.1955 34.2248 14.2901 34.2248 13.2407Z" fill="#00091A"/>
<path d="M50.1425 22.1296C48.4965 22.1296 47.015 21.7695 45.6981 21.0494C44.3812 20.3086 43.3421 19.2695 42.5808 17.9321C41.8401 16.5946 41.4697 15.0514 41.4697 13.3025C41.4697 11.5535 41.8504 10.0103 42.6117 8.67284C43.3936 7.33539 44.4532 6.30658 45.7907 5.58642C47.1281 4.84568 48.6199 4.47531 50.266 4.47531C51.9121 4.47531 53.4039 4.84568 54.7413 5.58642C56.0788 6.30658 57.1281 7.33539 57.8895 8.67284C58.6713 10.0103 59.0623 11.5535 59.0623 13.3025C59.0623 15.0514 58.6611 16.5946 57.8586 17.9321C57.0767 19.2695 56.0067 20.3086 54.6487 21.0494C53.3113 21.7695 51.8092 22.1296 50.1425 22.1296ZM50.1425 18.3642C50.9244 18.3642 51.6549 18.179 52.3339 17.8086C53.0335 17.4177 53.589 16.8416 54.0006 16.0802C54.4121 15.3189 54.6179 14.393 54.6179 13.3025C54.6179 11.677 54.1858 10.4321 53.3216 9.5679C52.4779 8.68313 51.4388 8.24074 50.2043 8.24074C48.9697 8.24074 47.9306 8.68313 47.087 9.5679C46.2639 10.4321 45.8524 11.677 45.8524 13.3025C45.8524 14.928 46.2537 16.1831 47.0561 17.0679C47.8792 17.9321 48.908 18.3642 50.1425 18.3642Z" fill="#00091A"/>
<path d="M67.3245 7.40741C67.8801 6.50206 68.6002 5.79218 69.485 5.27778C70.3903 4.76337 71.4192 4.50617 72.5714 4.50617V9.04321H71.4294C70.0714 9.04321 69.0426 9.36214 68.343 10C67.664 10.6379 67.3245 11.749 67.3245 13.3333V21.8519H63.0035V4.75309H67.3245V7.40741Z" fill="#00091A"/>
<path d="M81.2843 8.30247V16.5741C81.2843 17.1502 81.418 17.572 81.6855 17.8395C81.9736 18.0864 82.4468 18.2099 83.1053 18.2099H85.1114V21.8519H82.3954C78.7534 21.8519 76.9324 20.0823 76.9324 16.5432V8.30247H74.8954V4.75309H76.9324V0.52469H81.2843V4.75309H85.1114V8.30247H81.2843Z" fill="#00091A"/>
<path d="M101.969 21.8523L97.3089 14.5992L93.0805 21.8523H88.2039L94.994 10.9881L88.1113 0.309082H93.0805L97.741 7.5313L101.938 0.309082H106.815L100.056 11.1424L106.938 21.8523H101.969Z" fill="#00091A"/>
<path d="M101.938 0.311035L104.357 4.16906H108.997L106.812 0.311035H101.938Z" fill="#99BCFF"/>
<path d="M93.1286 0.328125H88.1492L102.036 21.9163H107.015L93.1286 0.328125Z" fill="#3377FE"/>
</svg>
