<svg width="15" height="15" viewBox="0 0 15 15" fill="none" xmlns="http://www.w3.org/2000/svg">
<path fill-rule="evenodd" clip-rule="evenodd" d="M6.16658 2.62504C3.8654 2.62504 1.99992 4.49052 1.99992 6.79171C1.99992 9.09289 3.8654 10.9584 6.16658 10.9584C7.31741 10.9584 8.35793 10.4929 9.11286 9.73799C9.86779 8.98305 10.3333 7.94253 10.3333 6.79171C10.3333 4.49052 8.46777 2.62504 6.16658 2.62504ZM0.333252 6.79171C0.333252 3.57005 2.94492 0.958374 6.16658 0.958374C9.38825 0.958374 11.9999 3.57005 11.9999 6.79171C11.9999 8.10163 11.5674 9.31159 10.8385 10.2851L14.2558 13.7025L13.0773 14.881L9.66 11.4636C8.68647 12.1925 7.47651 12.625 6.16658 12.625C2.94492 12.625 0.333252 10.0134 0.333252 6.79171Z" fill="#6032C7"/>
<path fill-rule="evenodd" clip-rule="evenodd" d="M6.16658 2.62504C3.8654 2.62504 1.99992 4.49052 1.99992 6.79171C1.99992 9.09289 3.8654 10.9584 6.16658 10.9584C7.31741 10.9584 8.35793 10.4929 9.11286 9.73799C9.86779 8.98305 10.3333 7.94253 10.3333 6.79171C10.3333 4.49052 8.46777 2.62504 6.16658 2.62504ZM0.333252 6.79171C0.333252 3.57005 2.94492 0.958374 6.16658 0.958374C9.38825 0.958374 11.9999 3.57005 11.9999 6.79171C11.9999 8.10163 11.5674 9.31159 10.8385 10.2851L14.2558 13.7025L13.0773 14.881L9.66 11.4636C8.68647 12.1925 7.47651 12.625 6.16658 12.625C2.94492 12.625 0.333252 10.0134 0.333252 6.79171Z" fill="black" fill-opacity="0.2"/>
<path fill-rule="evenodd" clip-rule="evenodd" d="M6.16658 2.62504C3.8654 2.62504 1.99992 4.49052 1.99992 6.79171C1.99992 9.09289 3.8654 10.9584 6.16658 10.9584C7.31741 10.9584 8.35793 10.4929 9.11286 9.73799C9.86779 8.98305 10.3333 7.94253 10.3333 6.79171C10.3333 4.49052 8.46777 2.62504 6.16658 2.62504ZM0.333252 6.79171C0.333252 3.57005 2.94492 0.958374 6.16658 0.958374C9.38825 0.958374 11.9999 3.57005 11.9999 6.79171C11.9999 8.10163 11.5674 9.31159 10.8385 10.2851L14.2558 13.7025L13.0773 14.881L9.66 11.4636C8.68647 12.1925 7.47651 12.625 6.16658 12.625C2.94492 12.625 0.333252 10.0134 0.333252 6.79171Z" fill="black" fill-opacity="0.2"/>
<path fill-rule="evenodd" clip-rule="evenodd" d="M6.16658 2.62504C3.8654 2.62504 1.99992 4.49052 1.99992 6.79171C1.99992 9.09289 3.8654 10.9584 6.16658 10.9584C7.31741 10.9584 8.35793 10.4929 9.11286 9.73799C9.86779 8.98305 10.3333 7.94253 10.3333 6.79171C10.3333 4.49052 8.46777 2.62504 6.16658 2.62504ZM0.333252 6.79171C0.333252 3.57005 2.94492 0.958374 6.16658 0.958374C9.38825 0.958374 11.9999 3.57005 11.9999 6.79171C11.9999 8.10163 11.5674 9.31159 10.8385 10.2851L14.2558 13.7025L13.0773 14.881L9.66 11.4636C8.68647 12.1925 7.47651 12.625 6.16658 12.625C2.94492 12.625 0.333252 10.0134 0.333252 6.79171Z" fill="black" fill-opacity="0.2"/>
</svg>
