<svg width="93" height="92" viewBox="0 0 93 92" fill="none" xmlns="http://www.w3.org/2000/svg">
<path d="M68.8593 23L49.1294 37.5987L52.7983 28.9952L68.8593 23Z" fill="#E17726" stroke="#E17726" stroke-width="0.25" stroke-linecap="round" stroke-linejoin="round"/>
<path d="M23.3495 23L42.9038 37.735L39.4106 28.9952L23.3495 23Z" fill="#E27625" stroke="#E27625" stroke-width="0.25" stroke-linecap="round" stroke-linejoin="round"/>
<path d="M61.755 56.8472L56.5054 64.8668L67.7462 67.9617L70.9663 57.0225L61.755 56.8472Z" fill="#E27625" stroke="#E27625" stroke-width="0.25" stroke-linecap="round" stroke-linejoin="round"/>
<path d="M21.2612 57.0225L24.4616 67.9617L35.6829 64.8668L30.4528 56.8472L21.2612 57.0225Z" fill="#E27625" stroke="#E27625" stroke-width="0.25" stroke-linecap="round" stroke-linejoin="round"/>
<path d="M35.078 43.3053L31.9556 48.0159L43.0793 48.522L42.7085 36.551L35.078 43.3053Z" fill="#E27625" stroke="#E27625" stroke-width="0.25" stroke-linecap="round" stroke-linejoin="round"/>
<path d="M57.1299 43.3004L49.3825 36.4098L49.1288 48.517L60.2524 48.0109L57.1299 43.3004Z" fill="#E27625" stroke="#E27625" stroke-width="0.25" stroke-linecap="round" stroke-linejoin="round"/>
<path d="M35.683 64.8657L42.4157 61.6151L36.6198 57.0992L35.683 64.8657Z" fill="#E27625" stroke="#E27625" stroke-width="0.25" stroke-linecap="round" stroke-linejoin="round"/>
<path d="M49.7924 61.6151L56.5055 64.8657L55.5883 57.0992L49.7924 61.6151Z" fill="#E27625" stroke="#E27625" stroke-width="0.25" stroke-linecap="round" stroke-linejoin="round"/>
<path d="M56.5055 64.8719L49.7924 61.6213L50.3387 65.9814L50.2801 67.8306L56.5055 64.8719Z" fill="#D5BFB2" stroke="#D5BFB2" stroke-width="0.25" stroke-linecap="round" stroke-linejoin="round"/>
<path d="M35.683 64.8719L41.928 67.8306L41.8889 65.9814L42.4157 61.6213L35.683 64.8719Z" fill="#D5BFB2" stroke="#D5BFB2" stroke-width="0.25" stroke-linecap="round" stroke-linejoin="round"/>
<path d="M42.0452 54.2227L36.4638 52.5878L40.4059 50.7775L42.0452 54.2227Z" fill="#233447" stroke="#233447" stroke-width="0.25" stroke-linecap="round" stroke-linejoin="round"/>
<path d="M50.1635 54.2227L51.8029 50.7775L55.7644 52.5878L50.1635 54.2227Z" fill="#233447" stroke="#233447" stroke-width="0.25" stroke-linecap="round" stroke-linejoin="round"/>
<path d="M35.6827 64.8668L36.6585 56.8472L30.4527 57.0225L35.6827 64.8668Z" fill="#CC6228" stroke="#CC6228" stroke-width="0.25" stroke-linecap="round" stroke-linejoin="round"/>
<path d="M55.5495 56.8472L56.5058 64.8668L61.7553 57.0225L55.5495 56.8472Z" fill="#CC6228" stroke="#CC6228" stroke-width="0.25" stroke-linecap="round" stroke-linejoin="round"/>
<path d="M60.2524 48.0098L49.1288 48.5159L50.163 54.2192L51.8024 50.7738L55.764 52.5841L60.2524 48.0098Z" fill="#CC6228" stroke="#CC6228" stroke-width="0.25" stroke-linecap="round" stroke-linejoin="round"/>
<path d="M36.4636 52.5841L40.4057 50.7738L42.045 54.2192L43.0793 48.5159L31.9556 48.0098L36.4636 52.5841Z" fill="#CC6228" stroke="#CC6228" stroke-width="0.25" stroke-linecap="round" stroke-linejoin="round"/>
<path d="M31.9556 48.0098L36.6198 57.1L36.4636 52.5841L31.9556 48.0098Z" fill="#E27525" stroke="#E27525" stroke-width="0.25" stroke-linecap="round" stroke-linejoin="round"/>
<path d="M55.7642 52.5841L55.5886 57.1L60.2527 48.0098L55.7642 52.5841Z" fill="#E27525" stroke="#E27525" stroke-width="0.25" stroke-linecap="round" stroke-linejoin="round"/>
<path d="M43.0795 48.519L42.0451 54.2224L43.3526 60.9572L43.6454 52.0812L43.0795 48.519Z" fill="#E27525" stroke="#E27525" stroke-width="0.25" stroke-linecap="round" stroke-linejoin="round"/>
<path d="M49.1289 48.519L48.5824 52.0618L48.8556 60.9572L50.1632 54.2224L49.1289 48.519Z" fill="#E27525" stroke="#E27525" stroke-width="0.25" stroke-linecap="round" stroke-linejoin="round"/>
<path d="M50.1634 54.2224L48.8559 60.9572L49.7927 61.619L55.5887 57.1032L55.7643 52.5873L50.1634 54.2224Z" fill="#F5841F" stroke="#F5841F" stroke-width="0.25" stroke-linecap="round" stroke-linejoin="round"/>
<path d="M36.4638 52.5873L36.62 57.1032L42.4159 61.619L43.3527 60.9572L42.0452 54.2224L36.4638 52.5873Z" fill="#F5841F" stroke="#F5841F" stroke-width="0.25" stroke-linecap="round" stroke-linejoin="round"/>
<path d="M50.2804 67.8316L50.3389 65.9824L49.8316 65.5542H42.3768L41.8889 65.9824L41.928 67.8316L35.683 64.8729L37.8687 66.6637L42.2987 69.7197H49.89L54.3395 66.6637L56.5057 64.8729L50.2804 67.8316Z" fill="#C0AC9D" stroke="#C0AC9D" stroke-width="0.25" stroke-linecap="round" stroke-linejoin="round"/>
<path d="M49.7925 61.6175L48.8557 60.9558H43.3524L42.4158 61.6175L41.8889 65.9778L42.3768 65.5495H49.8315L50.339 65.9778L49.7925 61.6175Z" fill="#161616" stroke="#161616" stroke-width="0.25" stroke-linecap="round" stroke-linejoin="round"/>
<path d="M69.6977 38.5525L71.3566 30.494L68.8586 23L49.7924 37.1122L57.13 43.302L67.4925 46.3191L69.7758 43.6524L68.7806 42.9321L70.3612 41.4918L69.1514 40.5574L70.7321 39.3506L69.6977 38.5525Z" fill="#763E1A" stroke="#763E1A" stroke-width="0.25" stroke-linecap="round" stroke-linejoin="round"/>
<path d="M20.8516 30.494L22.5299 38.5525L21.4565 39.3506L23.0568 40.5574L21.8468 41.4918L23.4276 42.9321L22.4323 43.6524L24.7156 46.3191L35.0782 43.302L42.4158 37.1122L23.3495 23L20.8516 30.494Z" fill="#763E1A" stroke="#763E1A" stroke-width="0.25" stroke-linecap="round" stroke-linejoin="round"/>
<path d="M67.4928 46.3183L57.1303 43.3013L60.2527 48.0118L55.5886 57.1019L61.7554 57.0241H70.9665L67.4928 46.3183Z" fill="#F5841F" stroke="#F5841F" stroke-width="0.25" stroke-linecap="round" stroke-linejoin="round"/>
<path d="M35.0778 43.3013L24.7154 46.3183L21.2612 57.0241H30.4528L36.6195 57.1019L31.9555 48.0118L35.0778 43.3013Z" fill="#F5841F" stroke="#F5841F" stroke-width="0.25" stroke-linecap="round" stroke-linejoin="round"/>
<path d="M49.129 48.5175L49.7925 37.111L52.7978 28.9941H39.4104L42.4157 37.111L43.0792 48.5175L43.3329 52.0991L43.3524 60.9557H48.8557L48.8752 52.0991L49.129 48.5175Z" fill="#F5841F" stroke="#F5841F" stroke-width="0.25" stroke-linecap="round" stroke-linejoin="round"/>
</svg>
