<svg width="20" height="20" viewBox="0 0 20 20" fill="none" xmlns="http://www.w3.org/2000/svg">
<g clip-path="url(#clip0_92_57186)">
<path fill-rule="evenodd" clip-rule="evenodd" d="M12.2929 1.29289C12.6834 0.902369 13.3166 0.902369 13.7071 1.29289L16.7071 4.29289C17.0977 4.68342 17.0977 5.31658 16.7071 5.70711L6.70713 15.7071C6.57897 15.8353 6.41839 15.9262 6.24256 15.9701L2.24256 16.9701C1.90178 17.0553 1.54129 16.9555 1.29291 16.7071C1.04453 16.4587 0.944685 16.0982 1.02988 15.7575L2.02988 11.7575C2.07384 11.5816 2.16476 11.4211 2.29291 11.2929L12.2929 1.29289ZM11.4142 5L13 6.58579L14.5858 5L13 3.41421L11.4142 5ZM11.5858 8L10 6.41421L3.90299 12.5112L3.37439 14.6256L5.48877 14.097L11.5858 8Z" fill="#4C4B58"/>
</g>
<defs>
<clipPath id="clip0_92_57186">
<rect width="20" height="20" fill="white"/>
</clipPath>
</defs>
</svg>
