<svg width="54" height="55" viewBox="0 0 54 55" fill="none" xmlns="http://www.w3.org/2000/svg">
<path fill-rule="evenodd" clip-rule="evenodd" d="M0.334473 10.8655C0.334473 5.34263 4.81163 0.865479 10.3345 0.865479H43.6678C49.1907 0.865479 53.6678 5.34263 53.6678 10.8655V44.1988C53.6678 49.7217 49.1907 54.1988 43.6678 54.1988H10.3345C4.81162 54.1988 0.334473 49.7217 0.334473 44.1988V10.8655ZM10.3345 7.53215C8.49352 7.53215 7.00114 9.02453 7.00114 10.8655V36.1514L14.6441 28.5085C15.9459 27.2067 18.0564 27.2067 19.3582 28.5085L27.0011 36.1514L37.9774 25.1751C39.2792 23.8734 41.3897 23.8734 42.6915 25.1751L47.0011 29.4848V10.8655C47.0011 9.02453 45.5088 7.53215 43.6678 7.53215H10.3345ZM47.0011 38.9129L40.3345 32.2462L31.7152 40.8655L38.3818 47.5321H43.6678C45.5088 47.5321 47.0011 46.0398 47.0011 44.1988V38.9129ZM28.9538 47.5321L17.0011 35.5795L7.21215 45.3685C7.68587 46.6325 8.90511 47.5321 10.3345 47.5321H28.9538ZM17.0011 14.1988C18.8421 14.1988 20.3345 15.6912 20.3345 17.5321V17.6988C20.3345 19.5398 18.8421 21.0321 17.0011 21.0321C15.1602 21.0321 13.6678 19.5398 13.6678 17.6988V17.5321C13.6678 15.6912 15.1602 14.1988 17.0011 14.1988Z" fill="#99BCFF"/>
</svg>
