<svg width="115" height="30" viewBox="0 0 115 30" fill="none" xmlns="http://www.w3.org/2000/svg">
<path d="M8.38103 22.0679C6.87898 22.0679 5.52095 21.8107 4.30696 21.2963C3.11354 20.7819 2.16704 20.0412 1.46745 19.0741C0.767865 18.107 0.407783 16.965 0.387207 15.6481H5.01684C5.07857 16.5329 5.38721 17.2325 5.94276 17.7469C6.51889 18.2613 7.30079 18.5185 8.28844 18.5185C9.29667 18.5185 10.0889 18.2819 10.665 17.8086C11.2411 17.3148 11.5292 16.677 11.5292 15.8951C11.5292 15.2572 11.3337 14.7325 10.9428 14.321C10.5518 13.9095 10.058 13.5905 9.46128 13.3642C8.88515 13.1173 8.08268 12.8498 7.05387 12.5617C5.6547 12.1502 4.51272 11.749 3.62795 11.358C2.76375 10.9465 2.01272 10.3395 1.37486 9.53704C0.757577 8.71399 0.448935 7.62346 0.448935 6.26543C0.448935 4.98971 0.767866 3.8786 1.40573 2.9321C2.04359 1.9856 2.93865 1.26543 4.09091 0.771604C5.24317 0.257201 6.56005 0 8.04153 0C10.2638 0 12.0642 0.545267 13.4428 1.6358C14.8419 2.70576 15.6135 4.20782 15.7576 6.14198H11.0045C10.9633 5.40123 10.6444 4.79424 10.0477 4.32099C9.47157 3.82716 8.69996 3.58025 7.73289 3.58025C6.88927 3.58025 6.21025 3.7963 5.69585 4.22839C5.20202 4.66049 4.95511 5.28807 4.95511 6.11111C4.95511 6.68724 5.14029 7.17078 5.51066 7.56173C5.90161 7.9321 6.37486 8.24074 6.93042 8.48765C7.50655 8.71399 8.30902 8.98148 9.33783 9.29012C10.737 9.70164 11.879 10.1132 12.7638 10.5247C13.6485 10.9362 14.4098 11.5535 15.0477 12.3765C15.6856 13.1996 16.0045 14.2798 16.0045 15.6173C16.0045 16.7695 15.7061 17.8395 15.1094 18.8272C14.5127 19.8148 13.6382 20.607 12.486 21.2037C11.3337 21.7798 9.9654 22.0679 8.38103 22.0679Z" fill="white"/>
<path d="M24.8432 7.22222C25.3988 6.44033 26.1601 5.79218 27.1272 5.27778C28.1148 4.7428 29.2362 4.47531 30.4914 4.47531C31.9523 4.47531 33.2691 4.83539 34.442 5.55556C35.6354 6.27572 36.5716 7.30453 37.2506 8.64197C37.9502 9.95885 38.3 11.4918 38.3 13.2407C38.3 14.9897 37.9502 16.5432 37.2506 17.9012C36.5716 19.2387 35.6354 20.2778 34.442 21.0185C33.2691 21.7593 31.9523 22.1296 30.4914 22.1296C29.2362 22.1296 28.1251 21.8724 27.158 21.358C26.2115 20.8436 25.4399 20.1955 24.8432 19.4136V30H20.5222V4.75309H24.8432V7.22222ZM33.8864 13.2407C33.8864 12.2119 33.6704 11.3272 33.2383 10.5864C32.8268 9.8251 32.2712 9.24897 31.5716 8.85802C30.8926 8.46708 30.1519 8.2716 29.3494 8.2716C28.5675 8.2716 27.8268 8.47737 27.1272 8.88889C26.4482 9.27983 25.8926 9.85597 25.4605 10.6173C25.049 11.3786 24.8432 12.2737 24.8432 13.3025C24.8432 14.3313 25.049 15.2263 25.4605 15.9877C25.8926 16.749 26.4482 17.3354 27.1272 17.7469C27.8268 18.1379 28.5675 18.3333 29.3494 18.3333C30.1519 18.3333 30.8926 18.1276 31.5716 17.716C32.2712 17.3045 32.8268 16.7181 33.2383 15.9568C33.6704 15.1955 33.8864 14.2901 33.8864 13.2407Z" fill="white"/>
<path d="M49.8042 22.1296C48.1581 22.1296 46.6766 21.7695 45.3597 21.0494C44.0428 20.3086 43.0038 19.2695 42.2424 17.9321C41.5017 16.5946 41.1313 15.0514 41.1313 13.3025C41.1313 11.5535 41.512 10.0103 42.2733 8.67284C43.0552 7.33539 44.1149 6.30658 45.4523 5.58642C46.7898 4.84568 48.2815 4.47531 49.9276 4.47531C51.5737 4.47531 53.0655 4.84568 54.4029 5.58642C55.7404 6.30658 56.7898 7.33539 57.5511 8.67284C58.333 10.0103 58.7239 11.5535 58.7239 13.3025C58.7239 15.0514 58.3227 16.5946 57.5202 17.9321C56.7383 19.2695 55.6684 20.3086 54.3103 21.0494C52.9729 21.7695 51.4708 22.1296 49.8042 22.1296ZM49.8042 18.3642C50.5861 18.3642 51.3165 18.179 51.9955 17.8086C52.6951 17.4177 53.2507 16.8416 53.6622 16.0802C54.0737 15.3189 54.2795 14.393 54.2795 13.3025C54.2795 11.677 53.8474 10.4321 52.9832 9.5679C52.1396 8.68313 51.1005 8.24074 49.8659 8.24074C48.6313 8.24074 47.5922 8.68313 46.7486 9.5679C45.9256 10.4321 45.514 11.677 45.514 13.3025C45.514 14.928 45.9153 16.1831 46.7177 17.0679C47.5408 17.9321 48.5696 18.3642 49.8042 18.3642Z" fill="white"/>
<path d="M66.9861 7.40741C67.5417 6.50206 68.2618 5.79218 69.1466 5.27778C70.052 4.76337 71.0808 4.50617 72.233 4.50617V9.04321H71.0911C69.733 9.04321 68.7042 9.36214 68.0046 10C67.3256 10.6379 66.9861 11.749 66.9861 13.3333V21.8519H62.6651V4.75309H66.9861V7.40741Z" fill="white"/>
<path d="M80.9459 8.30247V16.5741C80.9459 17.1502 81.0796 17.572 81.3471 17.8395C81.6352 18.0864 82.1084 18.2099 82.7669 18.2099H84.7731V21.8519H82.057C78.415 21.8519 76.594 20.0823 76.594 16.5432V8.30247H74.557V4.75309H76.594V0.52469H80.9459V4.75309H84.7731V8.30247H80.9459Z" fill="white"/>
<path d="M101.631 21.8523L96.9705 14.5992L92.7421 21.8523H87.8655L94.6557 10.9881L87.7729 0.309082H92.7421L97.4026 7.5313L101.6 0.309082H106.477L99.7174 11.1424L106.6 21.8523H101.631Z" fill="white"/>
<path d="M101.6 0.310959L104.019 4.16898H108.658L106.474 0.310959H101.6Z" fill="#99BCFF"/>
<path d="M92.7903 0.327927H87.8108L101.697 21.9161H106.677L92.7903 0.327927Z" fill="#3377FE"/>
</svg>
