<svg width="19" height="21" viewBox="0 0 19 21" fill="none" xmlns="http://www.w3.org/2000/svg">
<path fill-rule="evenodd" clip-rule="evenodd" d="M15.8332 7.33333H3.1665V5.75H15.8332V7.33333ZM15.8332 11.2917H3.1665V9.70833H15.8332V11.2917ZM12.6665 15.25H3.1665V13.6667H12.6665V15.25Z" fill="#6032C7"/>
<path fill-rule="evenodd" clip-rule="evenodd" d="M15.8332 7.33333H3.1665V5.75H15.8332V7.33333ZM15.8332 11.2917H3.1665V9.70833H15.8332V11.2917ZM12.6665 15.25H3.1665V13.6667H12.6665V15.25Z" fill="black" fill-opacity="0.2"/>
<path fill-rule="evenodd" clip-rule="evenodd" d="M15.8332 7.33333H3.1665V5.75H15.8332V7.33333ZM15.8332 11.2917H3.1665V9.70833H15.8332V11.2917ZM12.6665 15.25H3.1665V13.6667H12.6665V15.25Z" fill="black" fill-opacity="0.2"/>
<path fill-rule="evenodd" clip-rule="evenodd" d="M15.8332 7.33333H3.1665V5.75H15.8332V7.33333ZM15.8332 11.2917H3.1665V9.70833H15.8332V11.2917ZM12.6665 15.25H3.1665V13.6667H12.6665V15.25Z" fill="black" fill-opacity="0.2"/>
</svg>
