<svg width="223" height="228" viewBox="0 0 223 228" fill="none" xmlns="http://www.w3.org/2000/svg">
<circle cx="112" cy="114" r="100" fill="white"/>
<path d="M127.585 89.0867C123.919 88.6912 120.235 89.6583 117.246 91.8007C115.674 93.0489 113.678 93.6486 111.672 93.4764C109.659 93.6672 107.649 93.0787 106.063 91.8343C103.088 89.688 99.4175 88.709 95.7587 89.0865C82.9198 89.0865 76.1965 111.94 76.1965 119.849C76.1965 130.606 80.0484 136 87.6163 136C92.2165 135.537 96.6519 134.047 100.59 131.644C103.961 129.583 107.741 128.268 111.672 127.79C115.605 128.278 119.385 129.605 122.754 131.677C126.695 134.069 131.13 135.547 135.727 136C143.295 136 147.147 130.538 147.147 119.815C147.147 111.94 140.424 89.0865 127.585 89.0865L127.585 89.0867ZM101.535 114.219H96.4676V119.246C96.4676 120.171 95.7113 120.921 94.7781 120.921C93.8454 120.921 93.0892 120.171 93.0892 119.246V114.219H88.0213C87.088 114.219 86.3318 113.469 86.3318 112.544C86.3318 111.619 87.088 110.868 88.0213 110.868H93.0892V105.841C93.0892 104.916 93.8454 104.166 94.7781 104.166C95.7113 104.166 96.4676 104.916 96.4676 105.841V110.868H101.535C102.468 110.868 103.225 111.619 103.225 112.544C103.225 113.469 102.468 114.219 101.535 114.219ZM116.739 117.57C115.843 117.57 114.984 117.217 114.35 116.588C113.717 115.96 113.361 115.108 113.361 114.219C113.361 113.33 113.717 112.478 114.35 111.85C114.984 111.221 115.843 110.868 116.739 110.868C117.635 110.868 118.495 111.221 119.128 111.85C119.762 112.478 120.118 113.33 120.118 114.219C120.118 115.108 119.762 115.96 119.128 116.588C118.495 117.217 117.635 117.57 116.739 117.57ZM120.118 107.517C120.118 106.629 120.474 105.776 121.107 105.147C121.741 104.519 122.6 104.166 123.497 104.166C124.393 104.166 125.252 104.519 125.885 105.147C126.519 105.776 126.875 106.628 126.875 107.517C126.875 108.406 126.519 109.258 125.885 109.887C125.252 110.515 124.392 110.868 123.497 110.868C122.6 110.868 121.741 110.515 121.107 109.887C120.474 109.258 120.118 108.406 120.118 107.517ZM126.875 120.921C125.979 120.921 125.119 120.568 124.486 119.94C123.852 119.312 123.497 118.459 123.497 117.57C123.497 116.682 123.852 115.829 124.486 115.201C125.119 114.572 125.979 114.219 126.875 114.219C127.771 114.219 128.631 114.572 129.264 115.201C129.898 115.829 130.253 116.682 130.253 117.57C130.253 118.459 129.898 119.312 129.264 119.94C128.631 120.568 127.771 120.921 126.875 120.921ZM133.632 114.219C132.736 114.219 131.877 113.866 131.243 113.238C130.61 112.609 130.253 111.757 130.253 110.868C130.253 109.979 130.61 109.127 131.243 108.499C131.877 107.87 132.736 107.517 133.632 107.517C134.528 107.517 135.388 107.87 136.021 108.499C136.655 109.127 137.011 109.979 137.011 110.868C137.011 111.757 136.655 112.609 136.021 113.238C135.388 113.866 134.528 114.219 133.632 114.219Z" fill="black"/>
<path d="M104.761 31.7577C106.156 31.6369 107.376 32.0371 108.421 32.9584C109.456 33.8805 110.038 35.0808 110.166 36.5592C110.293 38.0284 109.925 39.3015 109.063 40.3786C108.192 41.4658 107.06 42.0698 105.665 42.1906C104.41 42.2994 103.293 42.0073 102.315 41.3145C101.338 40.6309 100.703 39.6835 100.41 38.4722L102.042 38.3308C102.252 39.1277 102.681 39.7557 103.33 40.2148C103.97 40.684 104.704 40.8827 105.531 40.811C106.517 40.7256 107.295 40.2976 107.865 39.5268C108.436 38.7561 108.672 37.8128 108.576 36.697C108.478 35.5718 108.082 34.674 107.387 34.0035C106.693 33.3423 105.853 33.0544 104.867 33.1397C104.039 33.2114 103.35 33.5287 102.799 34.0917C102.24 34.6648 101.926 35.3665 101.857 36.1968L100.226 36.3382C100.304 35.0854 100.766 34.0336 101.61 33.1829C102.456 32.3415 103.506 31.8664 104.761 31.7577Z" fill="black"/>
<path d="M88.1952 36.1272C88.6682 35.2422 89.4087 34.6611 90.4167 34.3841C91.4246 34.107 92.3581 34.2279 93.217 34.7468C94.0784 35.2747 94.655 36.0696 94.9469 37.1316C95.2388 38.1935 95.1483 39.167 94.6753 40.052C94.2048 40.9461 93.4655 41.5316 92.4576 41.8087C91.4496 42.0857 90.5149 41.9603 89.6536 41.4324C88.7946 40.9135 88.2192 40.1231 87.9273 39.0612C87.6354 37.9992 87.7247 37.0212 88.1952 36.1272ZM92.4309 35.8486C91.9112 35.5075 91.3499 35.4198 90.7469 35.5855C90.144 35.7513 89.7063 36.1135 89.434 36.6724C89.1552 37.2427 89.121 37.9103 89.3312 38.6752C89.5415 39.4402 89.911 39.992 90.4396 40.3307C90.9593 40.6718 91.5206 40.7595 92.1236 40.5937C92.7266 40.428 93.1642 40.0657 93.4365 39.5069C93.7088 38.9481 93.7398 38.2862 93.5295 37.5212C93.3192 36.7563 92.953 36.1987 92.4309 35.8486Z" fill="black"/>
<path d="M78.7873 38.5401L80.0529 37.9095L83.3619 44.5508L82.184 45.1377L81.6346 44.035C81.558 45.0951 81.0686 45.8499 80.1663 46.2994C79.6735 46.545 79.1912 46.634 78.7197 46.5666C78.2481 46.4991 77.8289 46.2857 77.4621 45.9262C77.4187 47.0948 76.9 47.9268 75.9059 48.4221C75.2125 48.7676 74.5571 48.823 73.9397 48.5884C73.3223 48.3538 72.82 47.848 72.4329 47.0711L70.2915 42.773L71.5571 42.1425L73.4987 46.0395C73.7776 46.5993 74.1131 46.9691 74.5052 47.1492C74.9015 47.3376 75.3293 47.3173 75.7888 47.0884C76.2315 46.8678 76.518 46.5113 76.6481 46.0189C76.7781 45.5266 76.7079 45.0089 76.4374 44.4659L74.5394 40.6566L75.805 40.026L77.7467 43.9231C78.0256 44.4828 78.361 44.8526 78.7531 45.0327C79.1494 45.2211 79.5773 45.2008 80.0367 44.9719C80.4878 44.7471 80.7784 44.3886 80.9085 43.8962C81.0344 43.4164 80.96 42.9008 80.6853 42.3494L78.7873 38.5401Z" fill="black"/>
<path d="M69.1158 55.4907C68.8531 55.4618 68.6424 55.3377 68.4839 55.1183C68.3253 54.899 68.2735 54.66 68.3285 54.4015C68.3758 54.1484 68.5206 53.9344 68.7626 53.7594C69.0047 53.5844 69.2571 53.5114 69.5198 53.5403C69.7825 53.5692 69.9932 53.6933 70.1517 53.9127C70.3103 54.132 70.3621 54.371 70.3071 54.6295C70.2522 54.8881 70.1037 55.1048 69.8616 55.2798C69.6196 55.4547 69.371 55.5251 69.1158 55.4907ZM63.3778 47.5289L64.5237 46.7005L68.8706 52.7139L67.7247 53.5423L63.3778 47.5289Z" fill="black"/>
<path d="M59.2628 56.2646L56.3629 53.2459L57.3826 52.2663L62.523 57.6172L61.5739 58.5289L60.7204 57.6405C60.9503 58.6881 60.6983 59.5642 59.9647 60.269C59.406 60.8057 58.7937 61.0574 58.1277 61.0243C57.4681 60.9978 56.8344 60.6683 56.2266 60.0356L52.8999 56.5726L53.9196 55.593L56.9166 58.7127C57.3627 59.1771 57.8031 59.4335 58.2378 59.4818C58.6723 59.5434 59.0779 59.3931 59.4549 59.031C59.8116 58.6883 59.9787 58.256 59.9562 57.7341C59.9401 57.2189 59.709 56.7291 59.2628 56.2646Z" fill="black"/>
<path d="M43.6725 63.0718C44.2488 62.2908 44.9096 61.804 45.6548 61.6116C46.3944 61.4266 47.1133 61.5685 47.8114 62.0372L46.9967 63.1412C46.5615 62.8664 46.138 62.7801 45.7263 62.8822C45.307 62.9788 44.9256 63.2599 44.582 63.7255C44.2051 64.2362 44.0549 64.7227 44.1313 65.1851C44.2022 65.655 44.4929 66.0783 45.0036 66.4552L46.085 67.2532C45.8465 66.822 45.745 66.3701 45.7805 65.8975C45.8235 65.4305 45.9947 64.9942 46.2939 64.5887C46.8426 63.8452 47.5721 63.4382 48.4825 63.3676C49.3874 63.3046 50.2792 63.5973 51.1578 64.2457C52.044 64.8996 52.5922 65.6579 52.8023 66.5206C53.007 67.3907 52.8322 68.2013 52.278 68.9523C51.6352 69.8235 50.7681 70.1811 49.6767 70.0254L50.7356 70.8068L49.9542 71.8657L44.1866 67.6095C43.4055 67.0332 42.9708 66.3412 42.8824 65.5336C42.7884 64.7335 43.0518 63.9129 43.6725 63.0718ZM51.4472 66.8951C51.3048 66.3493 50.9257 65.8491 50.3099 65.3947C49.6941 64.9403 49.1007 64.7227 48.5296 64.7421C47.966 64.767 47.5014 65.0273 47.1356 65.523C46.7754 66.0111 46.6637 66.5319 46.8006 67.0852C46.9394 67.6516 47.3054 68.1537 47.8987 68.5915C48.5145 69.046 49.1172 69.2587 49.7069 69.2299C50.291 69.2086 50.7632 68.9538 51.1234 68.4657C51.4836 67.9775 51.5916 67.454 51.4472 66.8951Z" fill="black"/>
<path d="M36.3164 87.4235C35.639 87.1568 35.2058 86.6904 35.0167 86.0241C34.8242 85.3666 34.9075 84.5818 35.2665 83.67C35.6221 82.7668 36.1126 82.1324 36.738 81.7667C37.3687 81.4132 38.0712 81.3487 38.8454 81.5733L38.3479 82.8369C37.9121 82.6954 37.505 82.7358 37.1267 82.9579C36.7483 83.1801 36.4549 83.5561 36.2463 84.0858C36.0582 84.5635 35.9937 84.9694 36.0527 85.3036C36.1083 85.6464 36.2968 85.8811 36.6181 86.0076C36.896 86.117 37.1464 86.1053 37.3693 85.9723C37.5887 85.8481 37.8273 85.586 38.0851 85.1859L38.7346 84.1477C39.5183 82.9215 40.4268 82.5119 41.4603 82.9188C42.0682 83.1581 42.4675 83.5962 42.6581 84.2329C42.8488 84.8697 42.7868 85.5876 42.4723 86.3866C42.1474 87.2116 41.674 87.8026 41.052 88.1595C40.4387 88.5199 39.764 88.5903 39.0279 88.3707L39.5254 87.1071C39.956 87.2365 40.3405 87.2023 40.6792 87.0047C41.0265 86.8104 41.2925 86.4788 41.4771 86.0098C41.6446 85.5843 41.6911 85.2114 41.6166 84.8911C41.5508 84.5743 41.3702 84.3578 41.0749 84.2415C40.797 84.1321 40.5483 84.1395 40.3289 84.2638C40.1095 84.388 39.8769 84.6476 39.6312 85.0423L38.9482 86.1275C38.175 87.3779 37.2978 87.8099 36.3164 87.4235Z" fill="black"/>
<path d="M31.896 99.2096C31.3291 98.3815 31.1553 97.4565 31.3747 96.4344C31.594 95.4123 32.132 94.64 32.9887 94.1175C33.8546 93.5969 34.8259 93.4522 35.9027 93.6833C36.9795 93.9144 37.8014 94.4439 38.3683 95.272C38.9443 96.102 39.1226 97.028 38.9033 98.0501C38.6839 99.0721 38.1413 99.8435 37.2755 100.364C36.4188 100.887 35.452 101.032 34.3752 100.801C33.2984 100.57 32.472 100.04 31.896 99.2096ZM33.6034 95.3233C33.061 95.6269 32.7241 96.0844 32.5929 96.6958C32.4617 97.3073 32.5812 97.8627 32.9513 98.3621C33.3285 98.8727 33.905 99.2111 34.6807 99.3776C35.4564 99.5441 36.1164 99.4709 36.6608 99.1582C37.2033 98.8546 37.5401 98.3971 37.6713 97.7857C37.8025 97.1743 37.6831 96.6188 37.313 96.1194C36.9428 95.62 36.37 95.287 35.5943 95.1205C34.8186 94.9541 34.155 95.0217 33.6034 95.3233Z" fill="black"/>
<path d="M30.5421 112.954C29.8435 112.234 29.516 111.351 29.5595 110.307C29.6031 109.262 30.0029 108.41 30.7591 107.751C31.5245 107.091 32.4574 106.784 33.5578 106.83C34.6582 106.876 35.5577 107.259 36.2563 107.98C36.9642 108.701 37.2964 109.583 37.2529 110.628C37.2093 111.672 36.8048 112.524 36.0394 113.183C35.2832 113.843 34.355 114.15 33.2546 114.104C32.1542 114.058 31.2501 113.675 30.5421 112.954ZM31.5686 108.835C31.0852 109.226 30.8305 109.734 30.8045 110.359C30.7784 110.984 30.99 111.511 31.4391 111.941C31.8972 112.38 32.5226 112.616 33.3152 112.649C34.1079 112.682 34.7461 112.499 35.2298 112.099C35.7132 111.708 35.9679 111.2 35.994 110.575C36.02 109.95 35.8085 109.423 35.3593 108.993C34.9101 108.564 34.2892 108.332 33.4966 108.299C32.704 108.266 32.0613 108.445 31.5686 108.835Z" fill="black"/>
<path d="M34.1877 122.055L30.036 122.589L29.8554 121.187L37.2147 120.239L37.3827 121.544L36.1608 121.702C37.1395 122.14 37.6938 122.864 37.8238 123.873C37.9227 124.641 37.7607 125.283 37.3377 125.799C36.9241 126.313 36.2821 126.627 35.412 126.739L30.6493 127.352L30.4687 125.949L34.7593 125.397C35.398 125.315 35.8661 125.113 36.1636 124.793C36.4716 124.48 36.5921 124.065 36.5254 123.546C36.4622 123.056 36.2142 122.664 35.7813 122.372C35.3576 122.078 34.8265 121.972 34.1877 122.055Z" fill="black"/>
<path d="M39.8338 145.525C39.2537 145.759 38.7008 145.76 38.1752 145.529C37.6495 145.298 37.27 144.892 37.0365 144.312C36.803 143.732 36.7957 143.177 37.0147 142.646C37.2336 142.115 37.6332 141.733 38.2133 141.499C38.8107 141.259 39.3766 141.252 39.9109 141.48C40.4452 141.708 40.8291 142.111 41.0626 142.692C41.2961 143.272 41.299 143.829 41.0714 144.363C40.8438 144.898 40.4312 145.285 39.8338 145.525Z" fill="black"/>
<path d="M46.2879 164.08C45.4413 162.965 45.1288 161.72 45.3503 160.345C45.5774 158.977 46.282 157.844 47.4639 156.947C48.6384 156.055 49.9112 155.687 51.2822 155.841C52.6664 155.997 53.7817 156.633 54.6283 157.748C55.3903 158.751 55.7393 159.852 55.6754 161.048C55.6189 162.24 55.1565 163.282 54.2882 164.176L53.2977 162.871C53.8597 162.269 54.1618 161.571 54.2038 160.777C54.2588 159.985 54.0352 159.259 53.5329 158.597C52.9347 157.809 52.1575 157.38 51.2013 157.309C50.2451 157.238 49.321 157.541 48.429 158.218C47.5295 158.901 46.9818 159.715 46.7857 160.661C46.5971 161.601 46.802 162.465 47.4002 163.253C47.9025 163.915 48.5387 164.328 49.3088 164.494C50.0919 164.661 50.8529 164.552 51.5917 164.167L52.5822 165.471C51.4806 166.073 50.3448 166.244 49.1747 165.984C48.0121 165.718 47.0498 165.084 46.2879 164.08Z" fill="black"/>
<path d="M58.8255 175.759C57.8246 175.831 56.938 175.515 56.1658 174.811C55.3935 174.106 54.9976 173.252 54.978 172.249C54.9647 171.239 55.3291 170.327 56.0714 169.513C56.8136 168.7 57.6852 168.257 58.6861 168.184C59.6933 168.105 60.583 168.418 61.3552 169.122C62.1275 169.827 62.5203 170.684 62.5336 171.694C62.5532 172.698 62.1919 173.606 61.4496 174.42C60.7074 175.233 59.8327 175.68 58.8255 175.759ZM56.3292 172.326C56.3181 172.947 56.5435 173.469 57.0055 173.89C57.4675 174.312 58.0074 174.488 58.6253 174.42C59.2564 174.352 59.8393 174.024 60.374 173.438C60.9087 172.852 61.1781 172.245 61.1823 171.618C61.1935 170.996 60.968 170.474 60.506 170.053C60.0441 169.632 59.5041 169.455 58.8862 169.523C58.2683 169.591 57.692 169.918 57.1574 170.504C56.6227 171.09 56.3467 171.697 56.3292 172.326Z" fill="black"/>
<path d="M65.8859 182.427L64.6772 181.693L68.5275 175.35L69.6524 176.033L69.0131 177.086C69.9505 176.585 70.85 176.596 71.7117 177.119C72.1824 177.405 72.5151 177.765 72.7098 178.2C72.9044 178.635 72.9476 179.103 72.8394 179.605C73.8508 179.018 74.8313 179.013 75.7807 179.589C76.4429 179.991 76.8396 180.516 76.9707 181.163C77.1018 181.81 76.9422 182.505 76.4918 183.247L74 187.352L72.7913 186.618L75.0506 182.896C75.3751 182.362 75.5088 181.881 75.4518 181.453C75.3996 181.017 75.1541 180.666 74.7153 180.4C74.2924 180.143 73.8381 180.091 73.3523 180.244C72.8665 180.397 72.4662 180.733 72.1514 181.251L69.943 184.889L68.7342 184.156L70.9935 180.434C71.318 179.899 71.4518 179.418 71.3947 178.99C71.3426 178.555 71.0971 178.204 70.6583 177.937C70.2274 177.676 69.7691 177.621 69.2833 177.774C68.8103 177.924 68.414 178.262 68.0944 178.788L65.8859 182.427Z" fill="black"/>
<path d="M85.3846 181.557C85.5003 181.794 85.5078 182.039 85.4069 182.29C85.3061 182.541 85.1316 182.712 84.8837 182.804C84.6444 182.899 84.3861 182.891 84.109 182.779C83.8318 182.668 83.6354 182.494 83.5196 182.256C83.4038 182.018 83.3963 181.774 83.4972 181.523C83.5981 181.272 83.7725 181.1 84.0205 181.009C84.2684 180.917 84.531 180.927 84.8081 181.039C85.0853 181.15 85.2774 181.323 85.3846 181.557ZM81.714 190.659L80.4019 190.132L83.1672 183.246L84.4794 183.773L81.714 190.659Z" fill="black"/>
<path d="M91.2975 189.478L90.2924 193.542L88.9198 193.202L90.7014 185.999L91.9789 186.315L91.6831 187.511C92.4463 186.758 93.3217 186.503 94.3093 186.747C95.0613 186.933 95.601 187.317 95.9284 187.898C96.2581 188.47 96.3176 189.182 96.107 190.033L94.954 194.695L93.5813 194.355L94.62 190.156C94.7747 189.531 94.7564 189.021 94.5653 188.628C94.3854 188.228 94.0418 187.965 93.5345 187.839C93.0543 187.721 92.5995 187.81 92.1701 188.108C91.743 188.396 91.4522 188.853 91.2975 189.478Z" fill="black"/>
<path d="M105.374 199.028C104.406 198.957 103.642 198.658 103.082 198.131C102.53 197.604 102.267 196.921 102.291 196.08L103.659 196.18C103.659 196.695 103.812 197.099 104.118 197.392C104.423 197.695 104.865 197.868 105.442 197.91C106.075 197.956 106.566 197.823 106.917 197.512C107.276 197.201 107.479 196.73 107.525 196.097L107.623 194.756C107.386 195.188 107.058 195.515 106.639 195.737C106.221 195.95 105.761 196.038 105.258 196.002C104.337 195.934 103.603 195.535 103.057 194.802C102.521 194.071 102.293 193.161 102.372 192.071C102.452 190.973 102.801 190.105 103.418 189.467C104.045 188.829 104.824 188.544 105.754 188.612C106.834 188.691 107.6 189.233 108.05 190.239L108.146 188.927L109.458 189.022L108.937 196.171C108.867 197.14 108.514 197.876 107.878 198.382C107.252 198.889 106.417 199.104 105.374 199.028ZM104.458 190.413C104.073 190.824 103.852 191.412 103.796 192.175C103.741 192.939 103.873 193.556 104.195 194.029C104.516 194.492 104.985 194.746 105.599 194.791C106.204 194.835 106.704 194.652 107.099 194.241C107.504 193.821 107.733 193.243 107.787 192.508C107.842 191.745 107.701 191.122 107.361 190.638C107.032 190.156 106.564 189.892 105.959 189.848C105.354 189.804 104.854 189.992 104.458 190.413Z" fill="black"/>
<path d="M129.895 192.252C130.031 192.967 129.868 193.582 129.405 194.098C128.952 194.612 128.244 194.96 127.281 195.143C126.327 195.324 125.529 195.248 124.886 194.914C124.25 194.57 123.821 194.01 123.598 193.236L124.932 192.982C125.045 193.426 125.296 193.749 125.686 193.95C126.076 194.151 126.55 194.199 127.11 194.093C127.614 193.997 127.992 193.835 128.243 193.606C128.503 193.376 128.601 193.092 128.536 192.752C128.481 192.459 128.337 192.254 128.106 192.136C127.883 192.017 127.534 191.955 127.059 191.95L125.834 191.955C124.379 191.947 123.547 191.397 123.34 190.306C123.218 189.664 123.375 189.093 123.812 188.592C124.249 188.091 124.889 187.76 125.732 187.6C126.603 187.434 127.356 187.519 127.99 187.854C128.622 188.181 129.041 188.714 129.249 189.453L127.915 189.707C127.794 189.274 127.56 188.967 127.212 188.786C126.862 188.596 126.44 188.548 125.945 188.642C125.496 188.728 125.156 188.887 124.924 189.121C124.692 189.346 124.605 189.614 124.664 189.926C124.72 190.219 124.859 190.426 125.081 190.545C125.303 190.664 125.647 190.722 126.112 190.72L127.394 190.718C128.864 190.704 129.698 191.216 129.895 192.252Z" fill="black"/>
<path d="M142.219 189.7C141.821 190.621 141.132 191.262 140.15 191.622C139.169 191.982 138.228 191.939 137.329 191.494C136.427 191.039 135.786 190.295 135.407 189.261C135.028 188.227 135.037 187.25 135.435 186.328C135.829 185.398 136.517 184.753 137.498 184.393C138.48 184.033 139.422 184.08 140.324 184.535C141.223 184.98 141.862 185.72 142.242 186.754C142.621 187.788 142.613 188.77 142.219 189.7ZM138.021 190.33C138.567 190.627 139.134 190.668 139.721 190.452C140.308 190.237 140.714 189.839 140.939 189.26C141.169 188.668 141.148 188 140.875 187.255C140.601 186.511 140.187 185.991 139.632 185.698C139.086 185.401 138.519 185.361 137.932 185.576C137.345 185.791 136.939 186.189 136.714 186.768C136.49 187.348 136.514 188.01 136.787 188.755C137.06 189.5 137.472 190.025 138.021 190.33Z" fill="black"/>
<path d="M154.565 183.509C154.329 184.484 153.757 185.232 152.851 185.753C151.944 186.274 151.01 186.39 150.049 186.103C149.083 185.807 148.325 185.182 147.777 184.227C147.228 183.272 147.072 182.307 147.309 181.332C147.54 180.348 148.109 179.596 149.016 179.076C149.922 178.555 150.859 178.443 151.825 178.738C152.786 179.025 153.541 179.647 154.09 180.602C154.638 181.557 154.797 182.526 154.565 183.509ZM150.534 184.839C151.123 185.04 151.688 184.984 152.23 184.672C152.772 184.361 153.105 183.901 153.229 183.292C153.356 182.67 153.222 182.015 152.827 181.327C152.432 180.639 151.936 180.197 151.34 180.002C150.751 179.801 150.186 179.857 149.643 180.168C149.101 180.48 148.768 180.94 148.644 181.549C148.521 182.159 148.656 182.807 149.052 183.495C149.447 184.183 149.941 184.631 150.534 184.839Z" fill="black"/>
<path d="M160.315 175.569L162.983 178.795L161.894 179.696L157.165 173.978L158.179 173.14L158.964 174.089C158.812 173.027 159.129 172.172 159.913 171.524C160.51 171.03 161.139 170.824 161.801 170.907C162.456 170.982 163.064 171.358 163.623 172.034L166.684 175.734L165.594 176.636L162.837 173.302C162.426 172.806 162.006 172.517 161.576 172.437C161.148 172.343 160.732 172.463 160.329 172.796C159.948 173.112 159.749 173.53 159.733 174.052C159.711 174.567 159.905 175.073 160.315 175.569Z" fill="black"/>
<path d="M177.151 158.266C177.659 158.632 177.955 159.098 178.04 159.666C178.125 160.234 177.984 160.772 177.618 161.279C177.252 161.786 176.787 162.088 176.221 162.187C175.655 162.285 175.119 162.151 174.612 161.785C174.089 161.408 173.782 160.933 173.689 160.36C173.597 159.786 173.733 159.246 174.099 158.739C174.465 158.232 174.935 157.932 175.508 157.839C176.081 157.747 176.629 157.889 177.151 158.266Z" fill="black"/>
<path d="M189.397 142.905C188.906 144.216 188.02 145.145 186.738 145.692C185.461 146.23 184.127 146.238 182.737 145.718C181.356 145.2 180.365 144.321 179.764 143.079C179.157 141.825 179.099 140.543 179.59 139.232C180.032 138.052 180.776 137.169 181.823 136.585C182.86 135.997 183.989 135.831 185.208 136.089L184.633 137.622C183.824 137.469 183.072 137.586 182.379 137.974C181.68 138.35 181.185 138.927 180.893 139.705C180.546 140.631 180.598 141.518 181.048 142.364C181.498 143.211 182.248 143.83 183.297 144.223C184.354 144.619 185.335 144.648 186.24 144.309C187.135 143.967 187.757 143.332 188.104 142.406C188.395 141.628 188.405 140.869 188.134 140.13C187.858 139.378 187.359 138.793 186.639 138.374L187.214 136.84C188.311 137.45 189.062 138.319 189.466 139.448C189.862 140.573 189.839 141.725 189.397 142.905Z" fill="black"/>
<path d="M192.583 126.071C193.179 126.879 193.384 127.797 193.201 128.826C193.017 129.856 192.506 130.646 191.668 131.198C190.821 131.749 189.856 131.927 188.771 131.734C187.687 131.54 186.847 131.04 186.252 130.232C185.647 129.422 185.437 128.503 185.62 127.474C185.804 126.445 186.32 125.655 187.167 125.105C188.005 124.553 188.966 124.373 190.05 124.567C191.134 124.76 191.979 125.262 192.583 126.071ZM191.012 130.015C191.544 129.692 191.864 129.223 191.974 128.608C192.084 127.992 191.945 127.441 191.558 126.955C191.163 126.458 190.575 126.14 189.794 126C189.013 125.861 188.356 125.957 187.823 126.288C187.291 126.611 186.971 127.08 186.861 127.695C186.751 128.311 186.89 128.862 187.277 129.348C187.664 129.834 188.248 130.147 189.029 130.287C189.81 130.426 190.471 130.335 191.012 130.015Z" fill="black"/>
<path d="M194.451 116.541L194.476 117.955L187.057 118.084L187.034 116.769L188.266 116.747C187.342 116.222 186.871 115.455 186.854 114.447C186.844 113.897 186.971 113.423 187.235 113.026C187.499 112.63 187.872 112.343 188.354 112.167C187.318 111.625 186.79 110.799 186.771 109.688C186.757 108.914 186.989 108.298 187.467 107.842C187.944 107.385 188.617 107.15 189.485 107.134L194.286 107.051L194.311 108.465L189.957 108.54C189.332 108.551 188.854 108.695 188.523 108.971C188.182 109.248 188.016 109.643 188.025 110.156C188.034 110.651 188.232 111.063 188.621 111.392C189.009 111.721 189.507 111.881 190.113 111.87L194.369 111.796L194.393 113.21L190.04 113.286C189.415 113.297 188.937 113.44 188.605 113.717C188.265 113.993 188.099 114.388 188.108 114.902C188.117 115.405 188.315 115.822 188.704 116.151C189.083 116.471 189.58 116.626 190.196 116.615L194.451 116.541Z" fill="black"/>
<path d="M183.312 100.515C183.451 100.29 183.654 100.153 183.92 100.105C184.186 100.056 184.424 100.112 184.634 100.273C184.842 100.424 184.973 100.647 185.027 100.941C185.08 101.235 185.038 101.494 184.899 101.719C184.759 101.944 184.557 102.08 184.291 102.129C184.024 102.178 183.786 102.122 183.577 101.961C183.367 101.8 183.235 101.573 183.181 101.279C183.127 100.985 183.171 100.73 183.312 100.515ZM192.968 98.7611L193.223 100.152L185.924 101.488L185.669 100.097L192.968 98.7611Z" fill="black"/>
<path d="M186.854 91.2889L190.827 89.9701L191.272 91.3121L184.23 93.6498L183.816 92.4008L184.985 92.0127C183.94 91.7694 183.258 91.165 182.937 90.1994C182.693 89.4642 182.729 88.8031 183.046 88.2162C183.354 87.6322 183.924 87.202 184.757 86.9256L189.314 85.4127L189.759 86.7547L185.654 88.1176C185.043 88.3205 184.622 88.6077 184.391 88.9793C184.148 89.345 184.11 89.7759 184.274 90.2719C184.43 90.7414 184.748 91.0783 185.229 91.2825C185.701 91.4897 186.243 91.4918 186.854 91.2889Z" fill="black"/>
<path d="M187.415 74.2854C187.872 75.1418 188.027 75.9477 187.88 76.7032C187.729 77.4504 187.291 78.0383 186.568 78.4667L185.922 77.2563C186.357 76.9817 186.617 76.6365 186.702 76.2209C186.795 75.8009 186.706 75.3356 186.433 74.8251C186.134 74.2652 185.76 73.9202 185.31 73.7903C184.855 73.652 184.348 73.7323 183.788 74.0312L182.602 74.664C183.094 74.6342 183.546 74.737 183.957 74.9724C184.36 75.2122 184.68 75.5544 184.917 75.9991C185.353 76.8142 185.406 77.6479 185.078 78.5001C184.745 79.344 184.098 80.0231 183.134 80.5372C182.163 81.0558 181.242 81.2243 180.373 81.0429C179.499 80.8532 178.843 80.3466 178.404 79.5232C177.894 78.568 177.944 77.6314 178.554 76.7133L177.393 77.3329L176.774 76.1719L183.097 72.7969C183.954 72.3399 184.765 72.2452 185.532 72.5129C186.295 72.7724 186.923 73.3632 187.415 74.2854ZM180.618 79.6584C181.172 79.7648 181.787 79.6378 182.462 79.2774C183.137 78.9171 183.589 78.475 183.817 77.9512C184.037 77.4317 184.002 76.9003 183.712 76.3568C183.426 75.8216 183.004 75.4967 182.446 75.3821C181.875 75.2637 181.264 75.3781 180.614 75.7253C179.938 76.0856 179.487 76.5381 179.259 77.0828C179.027 77.6193 179.054 78.1551 179.34 78.6903C179.625 79.2255 180.051 79.5482 180.618 79.6584Z" fill="black"/>
<path d="M168.598 57.1673C169.13 56.6706 169.737 56.4802 170.42 56.5962C171.097 56.7054 171.769 57.1182 172.438 57.8347C173.1 58.5443 173.462 59.2601 173.523 59.982C173.57 60.7034 173.326 61.3652 172.791 61.9675L171.864 60.9747C172.179 60.6422 172.318 60.2574 172.28 59.8202C172.242 59.3831 172.029 58.9564 171.641 58.5402C171.291 58.1649 170.952 57.932 170.625 57.8415C170.292 57.7441 169.999 57.8133 169.746 58.0489C169.528 58.2527 169.431 58.4837 169.455 58.7421C169.472 58.9936 169.606 59.3218 169.857 59.7267L170.514 60.7597C171.284 61.9948 171.263 62.9912 170.451 63.749C169.973 64.1947 169.406 64.3667 168.749 64.2648C168.092 64.1629 167.471 63.798 166.885 63.1703C166.28 62.5221 165.95 61.8404 165.896 61.1254C165.834 60.4167 166.061 59.7773 166.576 59.2074L167.503 60.2002C167.201 60.5331 167.066 60.895 167.099 61.2857C167.125 61.6828 167.309 62.0656 167.653 62.4341C167.965 62.7684 168.282 62.9709 168.603 63.0414C168.917 63.1183 169.191 63.0484 169.423 62.8319C169.641 62.6281 169.741 62.4005 169.723 62.1489C169.706 61.8974 169.572 61.5758 169.321 61.1841L168.635 60.1006C167.839 58.8647 167.827 57.8869 168.598 57.1673Z" fill="black"/>
<path d="M159.864 48.1067C160.856 47.9513 161.765 48.1925 162.594 48.8303C163.422 49.468 163.887 50.286 163.99 51.2842C164.088 52.2898 163.801 53.2289 163.129 54.1015C162.457 54.9741 161.625 55.4881 160.634 55.6435C159.636 55.8063 158.724 55.5688 157.896 54.931C157.067 54.2932 156.605 53.4715 156.507 52.4659C156.404 51.4678 156.689 50.5324 157.361 49.6598C158.033 48.7872 158.867 48.2695 159.864 48.1067ZM162.637 51.3202C162.597 50.6999 162.329 50.199 161.833 49.8175C161.338 49.4359 160.785 49.3048 160.175 49.4239C159.552 49.5448 158.998 49.9196 158.514 50.5481C158.03 51.1767 157.812 51.804 157.86 52.43C157.901 53.0503 158.169 53.5512 158.664 53.9327C159.16 54.3142 159.713 54.4454 160.323 54.3262C160.933 54.207 161.48 53.8332 161.964 53.2046C162.448 52.576 162.672 51.9479 162.637 51.3202Z" fill="black"/>
<path d="M148.038 40.9699C148.989 40.6493 149.926 40.7333 150.851 41.222C151.775 41.7107 152.372 42.4383 152.642 43.4047C152.908 44.3794 152.783 45.3536 152.268 46.3271C151.753 47.3007 151.02 47.9478 150.07 48.2684C149.114 48.5973 148.175 48.5174 147.251 48.0287C146.327 47.54 145.732 46.8083 145.466 45.8336C145.196 44.8671 145.318 43.8971 145.833 42.9236C146.348 41.95 147.083 41.2988 148.038 40.9699ZM151.314 43.6688C151.17 43.0643 150.821 42.6158 150.268 42.3235C149.715 42.0311 149.148 41.9952 148.567 42.2157C147.973 42.4401 147.491 42.903 147.12 43.6043C146.749 44.3056 146.64 44.9607 146.793 45.5695C146.938 46.1741 147.287 46.6225 147.84 46.9149C148.392 47.2072 148.959 47.2431 149.541 47.0226C150.122 46.8021 150.598 46.3412 150.969 45.6399C151.34 44.9386 151.455 44.2815 151.314 43.6688Z" fill="black"/>
<path d="M138.255 40.3453L139.558 36.3675L140.902 36.808L138.591 43.8588L137.34 43.4489L137.724 42.2782C136.907 42.973 136.015 43.1619 135.048 42.845C134.312 42.6037 133.803 42.1812 133.519 41.5776C133.233 40.9828 133.226 40.2686 133.5 39.4349L134.995 34.8718L136.339 35.3122L134.992 39.423C134.791 40.035 134.771 40.5442 134.933 40.9507C135.082 41.3632 135.406 41.6508 135.902 41.8136C136.372 41.9677 136.832 41.9123 137.283 41.6473C137.73 41.3913 138.054 40.9573 138.255 40.3453Z" fill="black"/>
<path d="M114.638 35.3434C114.677 34.7193 114.913 34.2197 115.348 33.8447C115.783 33.4696 116.312 33.3015 116.937 33.3404C117.561 33.3792 118.065 33.6116 118.45 34.0377C118.835 34.4638 119.008 34.9889 118.969 35.613C118.929 36.2558 118.692 36.7693 118.256 37.1537C117.821 37.5381 117.291 37.7108 116.667 37.672C116.043 37.6331 115.539 37.396 115.154 36.9606C114.77 36.5253 114.598 35.9862 114.638 35.3434Z" fill="black"/>
</svg>
